HIERARCHY
ROOT Hips
{
  OFFSET 43.0842 91.1655 101.099
  CHANNELS 6 Xposition Yposition Zposition Zrotation Xrotation Yrotation
  JOINT LeftUpLeg
  {
    OFFSET 8.64259 1.95398 -2.38835
    CHANNELS 3 Zrotation Xrotation Yrotation
    JOINT LeftLeg
    {
      OFFSET 43.7702 0 0
      CHANNELS 3 Zrotation Xrotation Yrotation
      JOINT LeftFoot
      {
        OFFSET 40.6238 0 0
        CHANNELS 3 Zrotation Xrotation Yrotation
        JOINT LeftToeBase
        {
          OFFSET 12.7242 0 0
          CHANNELS 3 Zrotation Xrotation Yrotation
          End Site
          {
            OFFSET 0 0 0
          }
        }
      }
    }
  }
  JOINT RightUpLeg
  {
    OFFSET -8.2249 1.95398 -2.59336
    CHANNELS 3 Zrotation Xrotation Yrotation
    JOINT RightLeg
    {
      OFFSET 43.5653 0 0
      CHANNELS 3 Zrotation Xrotation Yrotation
      JOINT RightFoot
      {
        OFFSET 40.6238 0 0
        CHANNELS 3 Zrotation Xrotation Yrotation
        JOINT RightToeBase
        {
          OFFSET 12.7242 0 0
          CHANNELS 3 Zrotation Xrotation Yrotation
          End Site
          {
            OFFSET 0 0 0
          }
        }
      }
    }
  }
  JOINT Spine
  {
    OFFSET 0.165834 0.87714 6.61349
    CHANNELS 3 Zrotation Xrotation Yrotation
    JOINT Spine1
    {
      OFFSET 7.38963 1.71661e-005 0
      CHANNELS 3 Zrotation Xrotation Yrotation
      JOINT Spine2
      {
        OFFSET 11.9445 1.14441e-005 0
        CHANNELS 3 Zrotation Xrotation Yrotation
        JOINT Spine3
        {
          OFFSET 14.7254 4.19617e-005 0
          CHANNELS 3 Zrotation Xrotation Yrotation
          JOINT Spine4
          {
            OFFSET 10.9679 0 0
            CHANNELS 3 Zrotation Xrotation Yrotation
            JOINT RightShoulder
            {
              OFFSET 2.46616 -1.6653 3.69651
              CHANNELS 3 Zrotation Xrotation Yrotation
              JOINT RightArm
              {
                OFFSET 13.0012 0 0
                CHANNELS 3 Zrotation Xrotation Yrotation
                JOINT RightForeArm
                {
                  OFFSET 28.7848 1.52588e-005 0
                  CHANNELS 3 Zrotation Xrotation Yrotation
                  JOINT RightHand
                  {
                    OFFSET 26.5688 1.52588e-005 0
                    CHANNELS 3 Zrotation Xrotation Yrotation
                    End Site
                    {
                      OFFSET 0 0 0
                    }
                  }
                }
              }
            }
            JOINT LeftShoulder
            {
              OFFSET 2.38034 -1.29275 -3.7523
              CHANNELS 3 Zrotation Xrotation Yrotation
              JOINT LeftArm
              {
                OFFSET 16.3182 6.10351e-005 0
                CHANNELS 3 Zrotation Xrotation Yrotation
                JOINT LeftForeArm
                {
                  OFFSET 27.0901 0 0
                  CHANNELS 3 Zrotation Xrotation Yrotation
                  JOINT LeftHand
                  {
                    OFFSET 24.5451 1.52588e-005 0
                    CHANNELS 3 Zrotation Xrotation Yrotation
                    End Site
                    {
                      OFFSET 0 0 0
                    }
                  }
                }
              }
            }
            JOINT Neck
            {
              OFFSET 5.0226 -0.0266342 0
              CHANNELS 3 Zrotation Xrotation Yrotation
              JOINT Head
              {
                OFFSET 6.69364 2.86102e-005 0
                CHANNELS 3 Zrotation Xrotation Yrotation
                End Site
                {
                  OFFSET 0 0 0
                }
              }
            }
          }
        }
      }
    }
  }
}
MOTION
Frames:	17
Frame Time:	0.0333333
115.842 91.1306 -33.788 94.44 -52.0826 92.6264 -165.536 7.4564 101.088 -33.336 17.2177 -8.35073 65.069 2.04803 16.7699 38.2021 9.10568 6.02677 176.567 26.3757 79.2283 -34.7236 -13.844 -2.42518 57.1757 0.0751175 3.3054 40.764 -4.19823 -10.2137 -1.05665 7.46525 -90.7486 11.9305 -2.45368 -1.22842 0.261343 -2.50536 -1.11921 -22.2822 -1.97109 -1.90916 -2.26954 -1.97111 -1.90917 94.1485 -49.72 -94.4825 2.36348 6.12524 -55.1608 -15.9621 12.083 -60.3308 -9.62862 -1.53289 -1.7618 -102.509 -53.3621 61.7103 -8.35551 18.1745 -65.1998 20.3545 11.2771 -97.6012 13.8709 1.54845 -0.421228 -30.403 -1.80631 -8.30019 5.71677 -2.81049 1.50903 
115.223 89.9917 -35.2699 93.5393 -45.8335 90.8036 -166.549 11.7199 99.2344 -37.5523 18.9833 -7.15136 66.0082 4.95256 17.2716 38.2801 9.03407 6.41867 177.091 25.7909 77.274 -34.1332 -16.7506 -3.4143 57.2384 1.43219 -1.53477 37.5419 -3.57084 -4.79394 -0.965667 7.57612 -90.605 11.7127 -2.20468 -0.974463 0.043346 -2.24542 -0.876456 -22.4998 -1.80989 -1.59211 -2.48713 -1.8099 -1.59211 94.6151 -49.0945 -93.852 0.339639 10.8187 -53.117 -17.3476 15.8971 -55.7225 -7.95023 -1.12992 -2.02147 -106.02 -55.9245 57.9367 -0.56958 20.0546 -64.828 20.4564 9.01748 -97.7133 13.7535 1.55059 -0.673174 -29.4408 -3.17403 -11.0578 4.28515 -4.74048 -1.65275 
114.563 88.9962 -36.4758 93.7692 -39.9997 90.9948 -167.748 15.4358 98.5487 -42.1388 24.0637 -5.29453 66.0585 6.6792 19.574 38.5505 9.20258 6.85043 173.938 25.8249 76.7557 -34.3908 -5.72817 -1.50963 59.5988 -0.755204 0.116333 35.8171 -3.49103 -1.45984 -0.736339 7.72672 -90.3413 11.4173 -1.62426 -0.515557 -0.252697 -1.64537 -0.443562 -22.7934 -1.39422 -0.979941 -2.78076 -1.39423 -0.979957 93.5587 -52.1711 -94.995 -3.85526 16.0996 -47.4587 -17.7929 19.8146 -52.6547 -7.68146 -1.12 -2.9036 -104.673 -54.9448 59.3577 3.70879 22.2169 -65.9951 19.8267 7.32041 -96.9712 14.0672 1.61615 -0.985909 -29.8527 -3.83134 -17.1697 4.43935 -6.40651 -3.4861 
113.983 88.3587 -37.5898 93.3172 -36.8921 90.1968 -167.93 18.1088 97.5941 -44.4958 27.2021 -4.82549 65.1866 7.10259 21.7371 38.8889 9.5371 7.12023 172.121 27.1172 75.38 -34.95 -2.44864 -0.194481 60.9352 -0.557838 0.0109691 33.8393 -2.73981 -0.262819 -0.187066 7.72908 -90.3469 11.4138 -0.534157 -0.637067 -0.25717 -0.561668 -0.61295 -22.7915 -0.318005 -0.768141 -2.77881 -0.317987 -0.768145 93.8355 -52.7017 -94.4967 -9.60214 20.6883 -40.3562 -16.6323 22.6172 -49.6416 -6.9567 -0.982469 -3.41295 -109.771 -58.2467 53.9799 10.2757 24.0715 -65.7513 18.1451 4.13887 -97.1141 13.3034 1.52534 -1.14793 -31.745 -5.47685 -19.1385 5.49748 -9.03294 -6.81625 
113.588 87.7115 -38.1141 93.5248 -35.6062 89.664 -167.283 19.2872 97.3582 -46.0201 29.2839 -5.44128 65.3566 7.12913 23.1791 38.5246 8.33536 8.6741 171.305 28.594 74.057 -37.225 -8.08003 0.0970342 60.7873 0.385649 -4.49989 34.6556 -3.35209 0.294948 0.209536 7.78204 -90.3284 11.3102 0.264052 -0.680134 -0.360934 0.233845 -0.691096 -22.8952 0.456242 -0.569337 -2.88259 0.45625 -0.56934 93.5897 -52.9217 -94.8298 -15.0614 20.2344 -35.3887 -16.7559 28.6167 -44.476 -5.74583 -0.739832 -3.92652 -113.916 -60.6709 49.794 13.8798 25.458 -63.7413 18.3278 0.279425 -98.085 12.8733 1.49524 -1.48552 -32.8163 -6.63603 -17.9194 4.88858 -10.498 -10.5541 
113.398 87.1049 -38.2256 94.0973 -33.4981 90.3189 -166.638 20.6386 98.3726 -48.3156 30.9123 -5.4452 65.1465 6.51368 24.2594 37.7959 7.35672 8.59064 169.597 28.9664 73.5153 -39.3074 -10.1923 0.949217 61.4188 0.0531761 -5.75583 35.2038 -3.44208 -0.431818 0.148207 7.97304 -90.0617 10.928 0.266573 -0.147985 -0.742934 0.259834 -0.159591 -23.2783 0.298726 -0.0610284 -3.26565 0.298746 -0.0610248 91.3419 -54.8909 -97.7958 -17.7988 17.7971 -33.9529 -20.0808 32.9757 -37.4374 -4.34807 -0.51775 -4.99017 -106.479 -57.1522 57.8242 9.17418 24.7823 -62.5977 18.1779 0.788868 -99.0807 14.0166 1.60033 -0.860297 -30.8349 -6.13051 -17.5425 2.32718 -9.45499 -12.3556 
113.315 86.9518 -38.3776 94.6002 -30.8324 91.0269 -166.247 21.6668 99.1039 -49.2391 31.5305 -5.16114 64.981 6.8913 23.6419 37.549 7.9828 6.57426 167.167 28.604 72.9988 -39.6517 -8.1283 2.52433 61.9214 -0.215909 -4.90323 34.9645 -3.59326 0.551956 0.18291 8.02602 -90.1613 10.8222 0.289752 -0.34783 -0.84876 0.274154 -0.360258 -23.384 0.380889 -0.244669 -3.37132 0.380877 -0.244674 91.3009 -54.6406 -97.903 -19.8675 16.7365 -31.1275 -20.9762 34.4318 -33.9652 -4.93015 -0.621823 -4.71359 -107.809 -57.8575 56.3653 7.78634 24.9342 -60.5834 18.7521 0.669322 -100.102 15.8618 1.81725 -0.231962 -31.9523 -6.35172 -16.0175 3.07218 -9.87083 -14.5857 
113.249 86.7209 -38.349 94.1908 -28.403 90.9011 -167.143 23.0497 99.0725 -50.3811 32.121 -4.50594 65.1522 7.03444 23.236 37.625 8.83261 4.94523 165.473 29.1571 72.4364 -40.676 -7.90458 3.41557 61.9554 -0.377257 -4.94018 35.5749 -3.94647 0.641244 0.145621 8.02422 -90.1347 10.8257 0.227799 -0.289214 -0.845303 0.214859 -0.298969 -23.3805 0.304189 -0.207384 -3.36783 0.304202 -0.207381 91.3779 -54.9626 -97.7303 -20.8991 15.55 -29.5451 -21.8816 36.0491 -31.1045 -5.11621 -0.657844 -4.64977 -107.869 -58.0108 56.3498 7.27838 23.8252 -60.3776 16.1971 0.974349 -100.877 15.9419 1.81653 -0.00967075 -31.3287 -6.64882 -15.9025 2.49378 -10.0324 -15.4339 
113.197 86.3519 -38.2065 94.1921 -26.5492 91.1028 -167.712 24.033 99.1835 -51.756 30.8707 -3.84132 65.5588 7.84282 22.2638 37.7954 9.46837 4.00462 164.575 29.2571 72.2165 -41.944 -8.09832 3.80576 62.5141 -0.66359 -5.79198 36.0455 -4.18168 0.580395 0.162157 8.02425 -90.1115 10.8256 0.271412 -0.247118 -0.845338 0.26029 -0.258829 -23.3806 0.333153 -0.154114 -3.36799 0.333115 -0.15413 91.4632 -55.3257 -97.5394 -20.1498 17.4726 -28.8963 -21.9749 34.2743 -29.3613 -4.97766 -0.692672 -5.39491 -108.525 -58.4045 55.6599 8.07039 24.0489 -60.3581 15.9149 0.255591 -100.953 14.8988 1.71875 -0.829961 -31.4324 -6.93404 -16.2349 2.45994 -10.4059 -15.8067 
112.988 86.2918 -38.0896 94.2426 -25.9394 91.1165 -167.768 24.3699 99.3234 -51.9674 31.7579 -3.74317 65.3974 7.63563 22.355 37.8689 9.53615 4.06438 164.617 29.0331 72.2512 -42.1272 -8.51876 3.7954 62.8125 -0.760074 -6.45442 35.932 -3.97638 0.0549274 0.182874 8.05913 -89.9845 10.7557 0.371351 -0.00339854 -0.915243 0.370862 -0.0197497 -23.4508 0.355219 0.108366 -3.43814 0.3552 0.108361 90.8419 -55.7804 -98.348 -19.8707 16.4914 -27.9177 -23.3779 34.9717 -28.0502 -3.92857 -0.515962 -5.91987 -106.669 -57.4186 57.6801 7.43451 24.3038 -61.0139 16.6351 -0.0297389 -100.722 15.1526 1.73952 -0.603843 -30.2808 -7.06553 -16.4796 1.50781 -10.2412 -15.575 
112.845 86.2344 -37.9635 94.1628 -25.1904 91.4418 -168.012 24.9034 99.7176 -52.3718 31.8482 -3.42157 65.4511 7.82846 21.8838 37.895 9.56626 4.07149 164.543 28.5212 72.6038 -42.0443 -8.5034 3.88491 63.1787 -1.02906 -6.73881 35.7799 -3.76502 -0.408325 0.16508 8.06479 -89.9631 10.7443 0.345788 0.0414686 -0.926652 0.347262 0.0262045 -23.4621 0.317317 0.143467 -3.44948 0.3173 0.143463 90.5907 -55.8942 -98.6859 -19.4099 16.2112 -27.7585 -24.3529 35.3827 -26.9368 -3.63391 -0.510991 -6.49491 -105.792 -56.9862 58.6661 6.36028 23.3701 -60.9356 15.7612 0.897117 -101.064 14.6874 1.67195 -0.556624 -29.7862 -7.09209 -16.1633 1.17467 -10.1031 -15.6661 
112.749 86.1847 -37.8447 94.0841 -24.3932 91.592 -168.45 25.3034 99.8568 -52.6891 31.8185 -3.06757 65.4171 7.67549 21.6198 38.0202 9.81063 3.87387 164.346 28.2478 72.7219 -42.1218 -8.85284 4.02054 63.29 -0.990395 -7.42926 35.9468 -3.80622 -0.589355 0.155947 8.0547 -89.9811 10.7645 0.31932 0.00813741 -0.90639 0.319372 -0.00593792 -23.4418 0.302112 0.103727 -3.4292 0.302126 0.103728 90.7847 -55.4784 -98.4888 -18.7318 16.5423 -27.3935 -24.4943 35.5242 -26.8375 -4.77923 -0.644325 -5.33693 -106.666 -57.4931 57.7138 6.25139 22.5435 -60.5684 14.185 1.65585 -101.194 15.5488 1.84528 -1.48336 -29.753 -7.63678 -15.6852 1.21826 -10.6078 -15.999 
112.706 86.2444 -37.7687 93.9367 -23.8909 91.7205 -168.828 25.4816 99.9803 -52.7053 32.5552 -2.82362 65.2873 7.49136 21.9089 37.9729 9.68199 4.03341 164.11 28.0535 72.8749 -41.8747 -8.46986 4.29519 63.2403 -0.783973 -7.87971 36.3639 -4.35383 0.587301 0.118275 8.04699 -89.9829 10.7799 0.243449 0.0114391 -0.891016 0.243727 0.000706806 -23.4263 0.228746 0.0840821 -3.4137 0.228757 0.0840743 90.8206 -55.2881 -98.4743 -18.0775 17.0488 -27.8352 -24.3672 35.4288 -26.831 -5.41842 -0.77504 -5.23661 -106.75 -57.5537 57.6282 6.11422 21.9268 -60.5523 13.4564 2.11645 -100.895 15.2074 1.83049 -1.97402 -29.3799 -7.78367 -15.0929 0.875334 -10.5924 -16.3972 
112.68 86.2579 -37.6428 93.7607 -23.5312 91.7245 -169.1 25.6914 100.077 -52.7177 33.0449 -2.68021 65.1923 7.27244 22.1681 38.057 9.71285 4.2107 163.737 27.7456 72.9001 -41.4381 -8.31181 4.56834 63.6349 -1.27539 -7.67806 36.3745 -4.51083 1.15142 0.0909192 8.00017 -89.9727 10.8735 0.193658 0.036099 -0.797412 0.195073 0.0275326 -23.3327 0.173875 0.0926362 -3.32002 0.173846 0.0926248 90.8679 -55.4449 -98.3755 -18.1176 16.811 -27.8489 -24.6914 35.4796 -26.7064 -5.34315 -0.757815 -5.22753 -106.57 -57.5077 57.847 6.10603 21.8707 -60.5273 13.2517 2.29763 -100.609 15.2873 1.83724 -1.91862 -29.2328 -7.91716 -14.9652 0.547996 -10.6457 -16.4404 
112.658 86.3177 -37.5209 93.7919 -23.4208 91.7561 -169.244 25.567 100.158 -52.5477 33.117 -2.57145 65.1683 7.23838 22.1797 38.1819 9.73421 4.53209 163.612 27.5956 72.937 -41.3044 -8.07503 4.70616 63.6127 -1.20015 -7.91409 36.6168 -4.87263 2.03961 0.110251 7.97085 -89.9576 10.9321 0.239076 0.0617048 -0.738809 0.241604 0.0511175 -23.2741 0.209481 0.13071 -3.26144 0.209492 0.130712 90.9627 -55.496 -98.2288 -18.0709 16.4335 -27.6787 -25.303 36.1777 -26.3263 -5.08953 -0.720374 -5.43404 -106.495 -57.3805 57.8948 6.12953 22.2473 -60.7104 14.0286 2.17637 -100.355 14.6617 1.69977 -1.0338 -29.4132 -8.01426 -15.2474 0.769077 -10.8258 -16.1554 
112.643 86.3769 -37.4389 93.7897 -23.4854 91.8121 -169.267 25.4346 100.22 -52.3617 32.8528 -2.532 65.1064 7.11419 22.0515 38.2748 9.99023 4.21106 163.603 27.4369 73.1172 -40.9891 -7.63183 4.79192 63.5797 -1.12042 -8.00964 36.6949 -4.93768 2.13422 0.112567 7.96694 -89.9367 10.9399 0.253412 0.101907 -0.731038 0.257656 0.0906473 -23.2663 0.211073 0.173362 -3.25366 0.211058 0.173351 91.1114 -55.4757 -98.0186 -17.7044 16.2913 -27.9415 -25.8914 36.5723 -26.1681 -3.74355 -0.454028 -5.69318 -105.881 -57.0077 58.5568 5.67792 21.8264 -60.9329 12.9898 2.84764 -100.283 15.2758 1.82679 -1.76927 -28.962 -8.21546 -15.3814 0.460559 -10.9261 -15.9854 
112.651 86.3715 -37.3643 93.8309 -23.543 91.9455 -169.264 25.3961 100.392 -52.3852 32.8953 -2.48078 65.1317 7.16913 22.0105 38.2283 9.83673 4.43189 163.717 27.359 73.2226 -41.098 -8.25293 4.76353 63.5275 -0.983185 -8.29534 36.7537 -4.93041 1.99039 0.124814 7.95035 -89.943 10.9731 0.274992 0.0872657 -0.697825 0.278583 0.0750698 -23.2331 0.23605 0.165878 -3.22049 0.236064 0.165876 90.9214 -55.5132 -98.2853 -17.7036 16.4156 -27.7445 -26.1796 36.3862 -26.0243 -4.98559 -0.738053 -5.89018 -105.998 -57.049 58.4187 5.87377 21.9639 -61.1116 13.3774 2.88494 -100.276 15.2005 1.79872 -1.46656 -29.2613 -8.29421 -15.3933 1.03921 -11.1297 -15.9398 
